<?xml version="1.0" encoding="UTF-8"?>
<svg id="a" xmlns="http://www.w3.org/2000/svg" version="1.1" viewBox="0 0 336.6 332.8">
  <!-- Generator: Adobe Illustrator 30.2.1, SVG Export Plug-In . SVG Version: 2.1.1 Build 1)  -->
  <defs>
    <style>
      .st0 {
        fill: #2e3192;
      }

      .st1 {
        stroke: #2e3192;
        stroke-miterlimit: 10;
        stroke-width: 10px;
      }

      .st1, .st2 {
        fill: #c69c6d;
      }

      .st3 {
        fill: #fff;
      }

      .st4 {
        fill: #8b5a2b;
      }
    </style>
  </defs>
  <path class="st3" d="M321.9,119.1c-11.7-9.8-27.1-11.5-37.7-11.3,0-2.5,0-4.1,0-4.5,0-14.4-15.1-26.9-43.3-36.2-26.2-8.6-60.9-13.3-97.8-13.3s-71.6,4.7-97.8,13.3C16.9,76.4,1.9,88.9,1.8,103.3c0,2-.9,24,4,52.3,4.7,27,15.9,65.1,42.3,92.8,23.7,25,55.7,37.6,94.8,37.6s88-20.5,112.5-60.9c.2,0,.5,0,.7,0h.6c11.3-.5,31.2-6.2,48.1-17.8,14.4-9.9,31.7-27.2,31.7-53.9s-8-28.7-14.7-34.3Z"/>
  <path class="st0" d="M143.2,286c-39.2,0-71.1-12.7-94.8-37.6-26.4-27.7-37.5-65.8-42.3-92.8-5-28.3-4.1-50.3-4-52.3,0-14.4,15.1-26.9,43.3-36.2,26.2-8.6,60.9-13.3,97.8-13.3s71.6,4.7,97.8,13.3c28.2,9.3,43.2,21.8,43.3,36.2,0,.7.2,4.3,0,9.9-.1,7.3-.5,14.3-1.2,21.4-1.6,16.4-5.4,41.1-15.1,65.4-3.1,7.7-6.6,15.1-10.5,22-24.4,42.4-62.8,63.9-114.3,63.9ZM143.2,63.8c-77.3,0-131.1,20.9-131.1,39.6v.2c0,.9-3.8,88.2,43.6,137.9,21.8,22.9,51.2,34.5,87.6,34.5s83.1-19.8,105.6-58.9c3.7-6.5,7-13.5,9.9-20.8,9.2-23.2,12.9-46.9,14.4-62.7.7-6.9,1.1-13.6,1.2-20.6h0c.1-5.8,0-9.3,0-9.3v-.3c0-18.7-53.8-39.6-131.1-39.6Z"/>
  <g>
    <path class="st4" d="M257.4,108.8c0,4.7-3.4,9.1-9.7,13.1-17.7,11.4-57.8,19.4-104.5,19.4s-86.8-8-104.5-19.4c-6.2-4-9.7-8.4-9.7-13.1,0-18,51.1-32.5,114.1-32.5s114.2,14.5,114.2,32.5Z"/>
    <path class="st0" d="M143.2,146.3c-46.1,0-88.2-7.9-107.2-20.2-7.9-5.1-11.9-10.9-11.9-17.3,0-24.6,59.9-37.5,119.1-37.5s119.2,12.9,119.2,37.5-4,12.2-12,17.3c-19,12.3-61.1,20.2-107.2,20.2ZM143.2,81.3c-67.6,0-109.1,16-109.1,27.5s2.6,5.8,7.4,8.9c17.5,11.3,57.4,18.6,101.8,18.6s84.3-7.3,101.8-18.6c4.8-3,7.4-6.2,7.4-8.9,0-4.5-7.8-11.9-29.8-18.2-21.1-6-49.3-9.3-79.4-9.3Z"/>
  </g>
  <g>
    <path class="st0" d="M256.9,225.2h-.5c-1.6,0-3.2-.3-4.8-.8l3-9.5c.6.2,1.2.3,1.7.3h.3c10-.4,27.6-5.7,42.8-16.1,12.5-8.5,27.3-23.3,27.3-45.7s-6-22.4-11.1-26.7c-11.2-9.3-27.3-9.4-35.9-8.7l-.9-10c10.2-.9,29.3-.7,43.2,11,6.7,5.6,14.7,16.2,14.7,34.3,0,26.7-17.2,44.1-31.7,53.9-16.9,11.6-36.8,17.3-48.1,17.8h-.1Z"/>
    <path class="st1" d="M278.6,134.1"/>
  </g>
  <g>
    <path class="st4" d="M224,108.3c0,4.2-11.1,17.8-85,17.8s-76.5-14.7-76.5-17.8,14.8-17,76.5-17,65.2,9.3,64.3,11.4c-2.6,6-18.5,9.2-43.2,10.3-41.6,1.8-46.6-4.3-46.6-4.3"/>
    <path class="st2" d="M139,129.6c-31.7,0-54.4-2.7-67.3-8-10.5-4.3-12.7-9.6-12.7-13.3,0-7.9,21.7-20.5,80-20.5s62.1,3.7,66.9,11.1c1.1,1.7,1.3,3.6.6,5.2-2.1,4.9-9.3,10.8-46.3,12.4-40.2,1.7-48-3.8-49.4-5.6-1.2-1.5-1-3.7.5-4.9,1.4-1.1,3.4-1,4.7.2.7.5,8.1,4.9,44,3.3,29.9-1.3,37.6-5.4,39.6-7.4-2.2-1.8-13-7.3-60.5-7.3s-70.3,10.4-72.9,13.9c.7,2.4,7.8,13.9,72.9,13.9s81.2-13.7,81.5-14.4c0-1.9,1.6-3.4,3.5-3.4s3.5,1.6,3.5,3.5c0,5-6.4,21.3-88.5,21.3ZM65.8,109h0s0,0,0,0ZM220.5,108.1h0s0,0,0,0ZM116.2,106.5s0,0,0,0c0,0,0,0,0,0ZM116.2,106.5s0,0,0,0c0,0,0,0,0,0ZM116.2,106.5s0,0,0,0c0,0,0,0,0,0Z"/>
  </g>
</svg>