<?xml version="1.0" encoding="UTF-8"?>
<svg id="a" xmlns="http://www.w3.org/2000/svg" version="1.1" viewBox="0 0 336.6 332.8">
  <!-- Generator: Adobe Illustrator 30.2.1, SVG Export Plug-In . SVG Version: 2.1.1 Build 1)  -->
  <defs>
    <style>
      .st0 {
        fill: #ff55a6;
      }

      .st0, .st1, .st2, .st3 {
        stroke: #2e3192;
        stroke-linecap: round;
        stroke-linejoin: round;
        stroke-width: 10px;
      }

      .st1 {
        fill: #ffc0de;
      }

      .st4 {
        fill: #2e3192;
      }

      .st2 {
        fill: #fff;
      }

      .st3 {
        fill: none;
      }
    </style>
  </defs>
  <g id="b">
    <path class="st0" d="M168,25l-48,60-45-40-20,80c-15,45-5,105,30,145,25,30,50,45,65,50v10h36v-10c15-5,40-20,65-50,35-40,45-100,30-145l-20-80-45,40-48-60Z"/>
    <path class="st1" d="M120,85l25,35h-50l25-35Z"/>
    <path class="st1" d="M216,85l-25,35h50l-25-35Z"/>
    <circle class="st2" cx="140" cy="175" r="16"/>
    <circle class="st2" cx="196" cy="175" r="16"/>
    <circle class="st4" cx="140" cy="175" r="7"/>
    <circle class="st4" cx="196" cy="175" r="7"/>
    <polygon class="st4" points="168 205 150 225 186 225 168 205"/>
    <path class="st3" d="M168,225c-13,20-28,20-38,5"/>
    <path class="st3" d="M168,225c13,20,28,20,38,5"/>
    <path class="st3" d="M110,210h-60"/>
    <path class="st3" d="M110,230H45"/>
    <path class="st3" d="M226,210h60"/>
    <path class="st3" d="M226,230h65"/>
  </g>
</svg>