<?xml version="1.0" encoding="UTF-8"?>
<svg id="Ebene_1" data-name="Ebene 1" xmlns="http://www.w3.org/2000/svg" viewBox="0 0 964.5 127.13">
  <defs>
    <style>
      .cls-1 {
        fill: #2d2d2d;
      }

      .cls-2 {
        fill: #9b9b9b;
      }

      .cls-3 {
        font-family: Helvetica-Bold, Helvetica;
        font-size: 34px;
        font-weight: 700;
      }

      .cls-4 {
        fill: #e7e7e7;
      }
    </style>
  </defs>
  <g>
    <g>
      <path class="cls-2" d="M419.53,67.68h-6.07c.64,1.11,1.01,2.39,1.01,3.76v32.51c0,4.17-3.38,7.55-7.55,7.55h-27.19c-4.17,0-7.55-3.38-7.55-7.55v-32.51c0-1.37.37-2.65,1.01-3.76h-.45c-3.11,0-5.63,2.53-5.63,5.63v45.92c0,3.11,2.53,5.63,5.63,5.63h46.81c3.11,0,5.63-2.53,5.63-5.63v-45.92c0-3.11-2.53-5.63-5.63-5.63Z"/>
      <path class="cls-2" d="M485.09,67.68h-4.04c.64,1.11,1.01,2.39,1.01,3.76v32.51c0,4.17-3.38,7.55-7.55,7.55h-27.19c-4.17,0-7.55-3.38-7.55-7.55v-32.51c0-1.37.37-2.65,1.01-3.76h-2.49c-3.11,0-5.63,2.53-5.63,5.63v45.92c0,3.11,2.53,5.63,5.63,5.63h46.81c3.11,0,5.63-2.53,5.63-5.63v-45.92c0-3.11-2.53-5.63-5.63-5.63Z"/>
      <path class="cls-2" d="M316.13,67.68h-4.04c.64,1.11,1.01,2.39,1.01,3.76v32.51c0,4.17-3.38,7.55-7.55,7.55H18.32c-4.17,0-7.55-3.38-7.55-7.55v-32.51c0-1.37.37-2.65,1.01-3.76h-3.87c-3.11,0-5.63,2.53-5.63,5.63v45.92c0,3.11,2.53,5.63,5.63,5.63h308.23c3.11,0,5.63-2.53,5.63-5.63v-45.92c0-3.11-2.53-5.63-5.63-5.63Z"/>
      <path class="cls-2" d="M548.39,67.68h-1.39c.64,1.11,1.01,2.39,1.01,3.76v32.51c0,4.17-3.38,7.55-7.55,7.55h-27.19c-4.17,0-7.55-3.38-7.55-7.55v-32.51c0-1.37.37-2.65,1.01-3.76h-5.13c-3.11,0-5.63,2.53-5.63,5.63v45.92c0,3.11,2.53,5.63,5.63,5.63h46.81c3.11,0,5.63-2.53,5.63-5.63v-45.92c0-3.11-2.53-5.63-5.63-5.63Z"/>
      <path class="cls-2" d="M437.15,60.43h46.81c3.11,0,5.63-2.53,5.63-5.63V8.88c0-3.11-2.53-5.63-5.63-5.63h-3.02c.85,1.22,1.35,2.7,1.35,4.3v32.51c0,4.17-3.38,7.55-7.55,7.55h-27.19c-4.17,0-7.55-3.38-7.55-7.55V7.55c0-1.6.5-3.08,1.35-4.3h-4.19c-3.11,0-5.63,2.53-5.63,5.63v45.92c0,3.11,2.53,5.63,5.63,5.63Z"/>
    </g>
    <g>
      <path class="cls-1" d="M419.53,65.41h-8.08c.81.61,1.49,1.38,2,2.27h6.07c3.11,0,5.63,2.53,5.63,5.63v45.92c0,3.11-2.53,5.63-5.63,5.63h-46.81c-3.11,0-5.63-2.53-5.63-5.63v-45.92c0-3.11,2.53-5.63,5.63-5.63h.45c.51-.89,1.19-1.65,2-2.27h-2.46c-4.36,0-7.9,3.54-7.9,7.9v45.92c0,4.36,3.54,7.9,7.9,7.9h46.81c4.36,0,7.9-3.54,7.9-7.9v-45.92c0-4.36-3.54-7.9-7.9-7.9Z"/>
      <path class="cls-1" d="M485.09,65.41h-6.04c.81.61,1.49,1.38,2,2.27h4.04c3.11,0,5.63,2.53,5.63,5.63v45.92c0,3.11-2.53,5.63-5.63,5.63h-46.81c-3.11,0-5.63-2.53-5.63-5.63v-45.92c0-3.11,2.53-5.63,5.63-5.63h2.49c.51-.89,1.19-1.65,2-2.27h-4.49c-4.36,0-7.9,3.54-7.9,7.9v45.92c0,4.36,3.54,7.9,7.9,7.9h46.81c4.36,0,7.9-3.54,7.9-7.9v-45.92c0-4.36-3.54-7.9-7.9-7.9Z"/>
      <path class="cls-1" d="M316.13,65.41h-6.04c.81.61,1.49,1.38,2,2.27h4.04c3.11,0,5.63,2.53,5.63,5.63v45.92c0,3.11-2.53,5.63-5.63,5.63H7.9c-3.11,0-5.63-2.53-5.63-5.63v-45.92c0-3.11,2.53-5.63,5.63-5.63h3.87c.51-.89,1.19-1.65,2-2.27h-5.88c-4.36,0-7.9,3.54-7.9,7.9v45.92c0,4.36,3.54,7.9,7.9,7.9h308.23c4.36,0,7.9-3.54,7.9-7.9v-45.92c0-4.36-3.54-7.9-7.9-7.9Z"/>
      <path class="cls-1" d="M548.39,65.41h-3.4c.81.61,1.49,1.38,2,2.27h1.39c3.11,0,5.63,2.53,5.63,5.63v45.92c0,3.11-2.53,5.63-5.63,5.63h-46.81c-3.11,0-5.63-2.53-5.63-5.63v-45.92c0-3.11,2.53-5.63,5.63-5.63h5.13c.51-.89,1.19-1.65,2-2.27h-7.14c-4.36,0-7.9,3.54-7.9,7.9v45.92c0,4.36,3.54,7.9,7.9,7.9h46.81c4.36,0,7.9-3.54,7.9-7.9v-45.92c0-4.36-3.54-7.9-7.9-7.9Z"/>
      <path class="cls-1" d="M437.15,62.7h46.81c4.36,0,7.9-3.54,7.9-7.9V8.88c0-4.36-3.54-7.9-7.9-7.9h-5.5c.99.56,1.84,1.34,2.48,2.27h3.02c3.11,0,5.63,2.53,5.63,5.63v45.92c0,3.11-2.53,5.63-5.63,5.63h-46.81c-3.11,0-5.63-2.53-5.63-5.63V8.88c0-3.11,2.53-5.63,5.63-5.63h4.19c.65-.93,1.49-1.71,2.48-2.27h-6.67c-4.36,0-7.9,3.54-7.9,7.9v45.92c0,4.36,3.54,7.9,7.9,7.9Z"/>
    </g>
    <g>
      <path class="cls-4" d="M479.05,65.41c-1.27-.96-2.83-1.53-4.54-1.53h-27.19c-1.71,0-3.28.57-4.54,1.53-.81.61-1.49,1.38-2,2.27-.64,1.11-1.01,2.39-1.01,3.76v32.51c0,4.17,3.38,7.55,7.55,7.55h27.19c4.17,0,7.55-3.38,7.55-7.55v-32.51c0-1.37-.37-2.65-1.01-3.76-.51-.89-1.19-1.65-2-2.27ZM461.69,102.27l-6.86-11.88h4.21v-13.68h5.29v13.68h4.21l-6.86,11.88Z"/>
      <path class="cls-4" d="M310.09,65.41c-1.27-.96-2.83-1.53-4.54-1.53H18.32c-1.71,0-3.28.57-4.54,1.53-.81.61-1.49,1.38-2,2.27-.64,1.11-1.01,2.39-1.01,3.76v32.51c0,4.17,3.38,7.55,7.55,7.55h287.23c4.17,0,7.55-3.38,7.55-7.55v-32.51c0-1.37-.37-2.65-1.01-3.76-.51-.89-1.19-1.65-2-2.27Z"/>
      <path class="cls-4" d="M411.45,65.41c-1.27-.96-2.83-1.53-4.54-1.53h-27.19c-1.71,0-3.28.57-4.54,1.53-.81.61-1.49,1.38-2,2.27-.64,1.11-1.01,2.39-1.01,3.76v32.51c0,4.17,3.38,7.55,7.55,7.55h27.19c4.17,0,7.55-3.38,7.55-7.55v-32.51c0-1.37-.37-2.65-1.01-3.76-.51-.89-1.19-1.65-2-2.27ZM405.41,90.34h-13.68v4.21l-11.88-6.86,11.88-6.86v4.21h13.68v5.29Z"/>
      <path class="cls-4" d="M547,67.68c-.51-.89-1.19-1.65-2-2.27-1.27-.96-2.83-1.53-4.54-1.53h-27.19c-1.71,0-3.28.57-4.54,1.53-.81.61-1.49,1.38-2,2.27-.64,1.11-1.01,2.39-1.01,3.76v32.51c0,4.17,3.38,7.55,7.55,7.55h27.19c4.17,0,7.55-3.38,7.55-7.55v-32.51c0-1.37-.37-2.65-1.01-3.76ZM527.76,94.55v-4.21h-13.68v-5.29h13.68v-4.21l11.88,6.86-11.88,6.86Z"/>
      <path class="cls-4" d="M478.45.99c-1.1-.62-2.37-.99-3.72-.99h-27.19c-1.35,0-2.62.36-3.72.99-.99.56-1.84,1.34-2.48,2.27-.85,1.22-1.35,2.7-1.35,4.3v32.51c0,4.17,3.38,7.55,7.55,7.55h27.19c4.17,0,7.55-3.38,7.55-7.55V7.55c0-1.6-.5-3.08-1.35-4.3-.65-.93-1.49-1.71-2.48-2.27ZM464.33,20.98v13.68h-5.29v-13.68h-4.21l6.86-11.88,6.86,11.88h-4.21Z"/>
    </g>
    <g>
      <polygon points="527.76 85.05 514.08 85.05 514.08 90.34 527.76 90.34 527.76 94.55 539.64 87.7 527.76 80.84 527.76 85.05"/>
      <polygon points="391.73 80.84 379.86 87.7 391.73 94.55 391.73 90.34 405.41 90.34 405.41 85.05 391.73 85.05 391.73 80.84"/>
      <polygon points="454.83 20.98 459.04 20.98 459.04 34.67 464.33 34.67 464.33 20.98 468.55 20.98 461.69 9.11 454.83 20.98"/>
      <polygon points="464.33 76.71 459.04 76.71 459.04 90.4 454.83 90.4 461.69 102.27 468.55 90.4 464.33 90.4 464.33 76.71"/>
    </g>
  </g>
  <text class="cls-3" transform="translate(598.45 69.29)"><tspan x="0" y="0">or use</tspan></text>
  <g>
    <g>
      <path class="cls-4" d="M794.2,50.08h-12.26v-12.26c0-.63-.52-1.15-1.15-1.15h-7.59c-.63,0-1.15.52-1.15,1.15v12.26h-12.26c-.64,0-1.15.52-1.15,1.15v7.59c0,.63.52,1.15,1.15,1.15h12.26v12.26c0,.63.52,1.15,1.15,1.15h7.59c.64,0,1.15-.52,1.15-1.15v-12.26h12.26c.63,0,1.15-.52,1.15-1.15v-7.59c0-.63-.52-1.15-1.15-1.15ZM776.98,58.93c-2.15,0-3.9-1.75-3.9-3.9s1.75-3.91,3.9-3.91,3.9,1.75,3.9,3.91-1.75,3.9-3.9,3.9Z"/>
      <path class="cls-2" d="M794.2,50.08h-12.26v-12.26c0-.63-.52-1.15-1.15-1.15h-7.59c-.63,0-1.15.52-1.15,1.15v12.26h-12.26c-.64,0-1.15.52-1.15,1.15v7.59c0,.63.52,1.15,1.15,1.15h12.26v12.26c0,.63.52,1.15,1.15,1.15h7.59c.64,0,1.15-.52,1.15-1.15v-12.26h12.26c.63,0,1.15-.52,1.15-1.15v-7.59c0-.63-.52-1.15-1.15-1.15ZM776.98,58.93c-2.15,0-3.9-1.75-3.9-3.9s1.75-3.91,3.9-3.91,3.9,1.75,3.9,3.91-1.75,3.9-3.9,3.9Z"/>
    </g>
    <g>
      <path class="cls-4" d="M776.98,53.12c-1.05,0-1.9.85-1.9,1.91s.85,1.9,1.9,1.9,1.9-.85,1.9-1.9-.85-1.91-1.9-1.91Z"/>
      <path class="cls-4" d="M776.98,53.12c-1.05,0-1.9.85-1.9,1.91s.85,1.9,1.9,1.9,1.9-.85,1.9-1.9-.85-1.91-1.9-1.91Z"/>
    </g>
    <g>
      <path class="cls-4" d="M776.98,94.42c-1.05,0-1.9.85-1.9,1.9s.85,1.91,1.9,1.91,1.9-.85,1.9-1.91-.85-1.9-1.9-1.9Z"/>
      <path class="cls-2" d="M776.98,94.42c-1.05,0-1.9.85-1.9,1.9s.85,1.91,1.9,1.91,1.9-.85,1.9-1.91-.85-1.9-1.9-1.9Z"/>
    </g>
    <g>
      <path class="cls-4" d="M865.26,47.17h-37.08c-3.88,0-7.04,3.16-7.04,7.04s3.16,7.04,7.04,7.04h37.08c3.88,0,7.04-3.16,7.04-7.04s-3.16-7.04-7.04-7.04ZM841.67,58.06h-13.19c-2.13,0-3.86-1.73-3.86-3.86s1.73-3.86,3.86-3.86h13.19c2.13,0,3.86,1.73,3.86,3.86s-1.73,3.86-3.86,3.86ZM864.96,58.06h-13.19c-2.13,0-3.86-1.73-3.86-3.86s1.73-3.86,3.86-3.86h13.19c2.13,0,3.86,1.73,3.86,3.86s-1.73,3.86-3.86,3.86Z"/>
      <path class="cls-2" d="M865.26,47.17h-37.08c-3.88,0-7.04,3.16-7.04,7.04s3.16,7.04,7.04,7.04h37.08c3.88,0,7.04-3.16,7.04-7.04s-3.16-7.04-7.04-7.04ZM841.67,58.06h-13.19c-2.13,0-3.86-1.73-3.86-3.86s1.73-3.86,3.86-3.86h13.19c2.13,0,3.86,1.73,3.86,3.86s-1.73,3.86-3.86,3.86ZM864.96,58.06h-13.19c-2.13,0-3.86-1.73-3.86-3.86s1.73-3.86,3.86-3.86h13.19c2.13,0,3.86,1.73,3.86,3.86s-1.73,3.86-3.86,3.86Z"/>
    </g>
    <g>
      <path class="cls-4" d="M841.67,52.35h-13.19c-1.02,0-1.86.83-1.86,1.86s.83,1.86,1.86,1.86h13.19c1.02,0,1.86-.83,1.86-1.86s-.83-1.86-1.86-1.86Z"/>
      <path class="cls-4" d="M841.67,52.35h-13.19c-1.02,0-1.86.83-1.86,1.86s.83,1.86,1.86,1.86h13.19c1.02,0,1.86-.83,1.86-1.86s-.83-1.86-1.86-1.86Z"/>
    </g>
    <g>
      <path class="cls-4" d="M864.96,52.35h-13.19c-1.02,0-1.86.83-1.86,1.86s.83,1.86,1.86,1.86h13.19c1.02,0,1.86-.83,1.86-1.86s-.83-1.86-1.86-1.86Z"/>
      <path class="cls-4" d="M864.96,52.35h-13.19c-1.02,0-1.86.83-1.86,1.86s.83,1.86,1.86,1.86h13.19c1.02,0,1.86-.83,1.86-1.86s-.83-1.86-1.86-1.86Z"/>
    </g>
    <g>
      <path class="cls-4" d="M776.98,91.72c-2.54,0-4.6,2.06-4.6,4.6s2.06,4.6,4.6,4.6,4.6-2.06,4.6-4.6-2.06-4.6-4.6-4.6ZM776.98,100.23c-2.15,0-3.9-1.75-3.9-3.91s1.75-3.9,3.9-3.9,3.9,1.75,3.9,3.9-1.75,3.91-3.9,3.91Z"/>
      <path class="cls-2" d="M776.98,91.72c-2.54,0-4.6,2.06-4.6,4.6s2.06,4.6,4.6,4.6,4.6-2.06,4.6-4.6-2.06-4.6-4.6-4.6ZM776.98,100.23c-2.15,0-3.9-1.75-3.9-3.91s1.75-3.9,3.9-3.9,3.9,1.75,3.9,3.9-1.75,3.91-3.9,3.91Z"/>
    </g>
    <g>
      <path class="cls-4" d="M900.77,93.89c0-11.1-9.03-20.14-20.14-20.14s-20.14,9.03-20.14,20.14,9.03,20.14,20.14,20.14,20.14-9.03,20.14-20.14ZM880.63,109.9c-8.83,0-16.02-7.19-16.02-16.02s7.19-16.02,16.02-16.02,16.02,7.19,16.02,16.02-7.19,16.02-16.02,16.02Z"/>
      <path class="cls-2" d="M900.77,93.89c0-11.1-9.03-20.14-20.14-20.14s-20.14,9.03-20.14,20.14,9.03,20.14,20.14,20.14,20.14-9.03,20.14-20.14ZM880.63,109.9c-8.83,0-16.02-7.19-16.02-16.02s7.19-16.02,16.02-16.02,16.02,7.19,16.02,16.02-7.19,16.02-16.02,16.02Z"/>
    </g>
    <g>
      <path class="cls-4" d="M803.68,15.17c-.33-.68-1.21-1.19-3.37-1.21-5.5-.04-14,0-23.31.08-13.03.13-25.27,7.14-25.27,9.12v.6c8.12-5.43,17.86-8.6,28.34-8.6h23.62Z"/>
      <path class="cls-2" d="M803.68,15.17c-.33-.68-1.21-1.19-3.37-1.21-5.5-.04-14,0-23.31.08-13.03.13-25.27,7.14-25.27,9.12v.6c8.12-5.43,17.86-8.6,28.34-8.6h23.62Z"/>
    </g>
    <g>
      <path class="cls-4" d="M941.65,23.73v-.55c0-1.99-12.24-9-25.27-9.12-9.32-.09-17.82-.12-23.31-.08-2.16.02-3.04.52-3.37,1.21h23.68c10.45,0,20.17,3.16,28.27,8.56Z"/>
      <path class="cls-2" d="M941.65,23.73v-.55c0-1.99-12.24-9-25.27-9.12-9.32-.09-17.82-.12-23.31-.08-2.16.02-3.04.52-3.37,1.21h23.68c10.45,0,20.17,3.16,28.27,8.56Z"/>
    </g>
    <g>
      <path class="cls-4" d="M813.14,79.87c-7.73,0-14.02,6.29-14.02,14.02s6.29,14.02,14.02,14.02,14.02-6.29,14.02-14.02-6.29-14.02-14.02-14.02Z"/>
      <path class="cls-4" d="M813.14,79.87c-7.73,0-14.02,6.29-14.02,14.02s6.29,14.02,14.02,14.02,14.02-6.29,14.02-14.02-6.29-14.02-14.02-14.02Z"/>
    </g>
    <g>
      <path class="cls-4" d="M880.63,79.87c-7.73,0-14.02,6.29-14.02,14.02s6.29,14.02,14.02,14.02,14.02-6.29,14.02-14.02-6.29-14.02-14.02-14.02Z"/>
      <path class="cls-4" d="M880.63,79.87c-7.73,0-14.02,6.29-14.02,14.02s6.29,14.02,14.02,14.02,14.02-6.29,14.02-14.02-6.29-14.02-14.02-14.02Z"/>
    </g>
    <g>
      <path class="cls-4" d="M813.14,73.75c-11.1,0-20.14,9.03-20.14,20.14s9.03,20.14,20.14,20.14,20.14-9.03,20.14-20.14-9.03-20.14-20.14-20.14ZM813.14,109.9c-8.83,0-16.02-7.19-16.02-16.02s7.19-16.02,16.02-16.02,16.02,7.19,16.02,16.02-7.19,16.02-16.02,16.02Z"/>
      <path class="cls-2" d="M813.14,73.75c-11.1,0-20.14,9.03-20.14,20.14s9.03,20.14,20.14,20.14,20.14-9.03,20.14-20.14-9.03-20.14-20.14-20.14ZM813.14,109.9c-8.83,0-16.02-7.19-16.02-16.02s7.19-16.02,16.02-16.02,16.02,7.19,16.02,16.02-7.19,16.02-16.02,16.02Z"/>
    </g>
    <g>
      <path class="cls-4" d="M895.65,47.8c-3.98,0-7.23,3.24-7.23,7.23s3.24,7.23,7.23,7.23,7.23-3.24,7.23-7.23-3.24-7.23-7.23-7.23Z"/>
      <path class="cls-2" d="M895.65,47.8c-3.98,0-7.23,3.24-7.23,7.23s3.24,7.23,7.23,7.23,7.23-3.24,7.23-7.23-3.24-7.23-7.23-7.23Z"/>
    </g>
    <g>
      <path class="cls-4" d="M915.45,91.72c-2.54,0-4.6,2.06-4.6,4.6s2.06,4.6,4.6,4.6,4.6-2.06,4.6-4.6-2.06-4.6-4.6-4.6ZM915.45,100.23c-2.15,0-3.9-1.75-3.9-3.91s1.75-3.9,3.9-3.9,3.9,1.75,3.9,3.9-1.75,3.91-3.9,3.91Z"/>
      <path class="cls-2" d="M915.45,91.72c-2.54,0-4.6,2.06-4.6,4.6s2.06,4.6,4.6,4.6,4.6-2.06,4.6-4.6-2.06-4.6-4.6-4.6ZM915.45,100.23c-2.15,0-3.9-1.75-3.9-3.91s1.75-3.9,3.9-3.9,3.9,1.75,3.9,3.9-1.75,3.91-3.9,3.91Z"/>
    </g>
    <g>
      <path class="cls-4" d="M935.9,47.8c-3.98,0-7.23,3.24-7.23,7.23s3.24,7.23,7.23,7.23,7.23-3.24,7.23-7.23-3.24-7.23-7.23-7.23Z"/>
      <path class="cls-2" d="M935.9,47.8c-3.98,0-7.23,3.24-7.23,7.23s3.24,7.23,7.23,7.23,7.23-3.24,7.23-7.23-3.24-7.23-7.23-7.23Z"/>
    </g>
    <g>
      <path class="cls-4" d="M915.92,64.89c-3.98,0-7.23,3.24-7.23,7.23s3.24,7.23,7.23,7.23,7.23-3.24,7.23-7.23-3.24-7.23-7.23-7.23Z"/>
      <path class="cls-2" d="M915.92,64.89c-3.98,0-7.23,3.24-7.23,7.23s3.24,7.23,7.23,7.23,7.23-3.24,7.23-7.23-3.24-7.23-7.23-7.23Z"/>
    </g>
    <g>
      <path class="cls-4" d="M915.45,94.42c-1.05,0-1.9.85-1.9,1.9s.85,1.91,1.9,1.91,1.9-.85,1.9-1.91-.85-1.9-1.9-1.9Z"/>
      <path class="cls-2" d="M915.45,94.42c-1.05,0-1.9.85-1.9,1.9s.85,1.91,1.9,1.91,1.9-.85,1.9-1.91-.85-1.9-1.9-1.9Z"/>
    </g>
    <g>
      <path class="cls-4" d="M913.38,17.17h-133.32c-27.09,0-49.12,22.04-49.12,49.12s22.04,49.12,49.12,49.12c6.78,0,13.35-1.36,19.52-4.04-5.22-4.05-8.58-10.38-8.58-17.48,0-12.21,9.93-22.14,22.14-22.14s22.14,9.93,22.14,22.14c0,4.06-1.1,7.86-3.02,11.14h29.26c-1.91-3.27-3.02-7.08-3.02-11.14,0-12.21,9.93-22.14,22.14-22.14s22.14,9.93,22.14,22.14c0,7.16-3.42,13.53-8.7,17.58,6.12,2.62,12.61,3.95,19.31,3.95,27.09,0,49.12-22.04,49.12-49.12s-22.04-49.12-49.12-49.12ZM776.98,102.92c-3.64,0-6.6-2.96-6.6-6.6s2.96-6.6,6.6-6.6,6.6,2.96,6.6,6.6-2.96,6.6-6.6,6.6ZM797.35,58.83c0,1.74-1.41,3.15-3.15,3.15h-10.26v10.26c0,1.74-1.41,3.15-3.15,3.15h-7.59c-1.74,0-3.15-1.41-3.15-3.15v-10.26h-10.26c-1.74,0-3.15-1.41-3.15-3.15v-7.59c0-1.74,1.41-3.15,3.15-3.15h10.26v-10.26c0-1.74,1.41-3.15,3.15-3.15h7.59c1.74,0,3.15,1.41,3.15,3.15v10.26h10.26c1.74,0,3.15,1.41,3.15,3.15v7.59ZM865.26,63.24h-37.08c-4.98,0-9.04-4.05-9.04-9.04s4.05-9.04,9.04-9.04h37.08c4.98,0,9.04,4.05,9.04,9.04s-4.05,9.04-9.04,9.04ZM895.65,64.26c-5.09,0-9.23-4.14-9.23-9.23s4.14-9.23,9.23-9.23,9.23,4.14,9.23,9.23-4.14,9.23-9.23,9.23ZM915.45,102.92c-3.64,0-6.6-2.96-6.6-6.6s2.96-6.6,6.6-6.6,6.6,2.96,6.6,6.6-2.96,6.6-6.6,6.6ZM915.92,81.34c-5.09,0-9.23-4.14-9.23-9.23s4.14-9.23,9.23-9.23,9.23,4.14,9.23,9.23-4.14,9.23-9.23,9.23ZM915.92,47.17c-5.09,0-9.23-4.14-9.23-9.23s4.14-9.23,9.23-9.23,9.23,4.14,9.23,9.23-4.14,9.23-9.23,9.23ZM935.9,64.26c-5.09,0-9.23-4.14-9.23-9.23s4.14-9.23,9.23-9.23,9.23,4.14,9.23,9.23-4.14,9.23-9.23,9.23Z"/>
      <path class="cls-4" d="M913.38,17.17h-133.32c-27.09,0-49.12,22.04-49.12,49.12s22.04,49.12,49.12,49.12c6.78,0,13.35-1.36,19.52-4.04-5.22-4.05-8.58-10.38-8.58-17.48,0-12.21,9.93-22.14,22.14-22.14s22.14,9.93,22.14,22.14c0,4.06-1.1,7.86-3.02,11.14h29.26c-1.91-3.27-3.02-7.08-3.02-11.14,0-12.21,9.93-22.14,22.14-22.14s22.14,9.93,22.14,22.14c0,7.16-3.42,13.53-8.7,17.58,6.12,2.62,12.61,3.95,19.31,3.95,27.09,0,49.12-22.04,49.12-49.12s-22.04-49.12-49.12-49.12ZM776.98,102.92c-3.64,0-6.6-2.96-6.6-6.6s2.96-6.6,6.6-6.6,6.6,2.96,6.6,6.6-2.96,6.6-6.6,6.6ZM797.35,58.83c0,1.74-1.41,3.15-3.15,3.15h-10.26v10.26c0,1.74-1.41,3.15-3.15,3.15h-7.59c-1.74,0-3.15-1.41-3.15-3.15v-10.26h-10.26c-1.74,0-3.15-1.41-3.15-3.15v-7.59c0-1.74,1.41-3.15,3.15-3.15h10.26v-10.26c0-1.74,1.41-3.15,3.15-3.15h7.59c1.74,0,3.15,1.41,3.15,3.15v10.26h10.26c1.74,0,3.15,1.41,3.15,3.15v7.59ZM865.26,63.24h-37.08c-4.98,0-9.04-4.05-9.04-9.04s4.05-9.04,9.04-9.04h37.08c4.98,0,9.04,4.05,9.04,9.04s-4.05,9.04-9.04,9.04ZM895.65,64.26c-5.09,0-9.23-4.14-9.23-9.23s4.14-9.23,9.23-9.23,9.23,4.14,9.23,9.23-4.14,9.23-9.23,9.23ZM915.45,102.92c-3.64,0-6.6-2.96-6.6-6.6s2.96-6.6,6.6-6.6,6.6,2.96,6.6,6.6-2.96,6.6-6.6,6.6ZM915.92,81.34c-5.09,0-9.23-4.14-9.23-9.23s4.14-9.23,9.23-9.23,9.23,4.14,9.23,9.23-4.14,9.23-9.23,9.23ZM915.92,47.17c-5.09,0-9.23-4.14-9.23-9.23s4.14-9.23,9.23-9.23,9.23,4.14,9.23,9.23-4.14,9.23-9.23,9.23ZM935.9,64.26c-5.09,0-9.23-4.14-9.23-9.23s4.14-9.23,9.23-9.23,9.23,4.14,9.23,9.23-4.14,9.23-9.23,9.23Z"/>
    </g>
    <g>
      <path class="cls-4" d="M915.92,30.71c-3.98,0-7.23,3.24-7.23,7.23s3.24,7.23,7.23,7.23,7.23-3.24,7.23-7.23-3.24-7.23-7.23-7.23Z"/>
      <path class="cls-2" d="M915.92,30.71c-3.98,0-7.23,3.24-7.23,7.23s3.24,7.23,7.23,7.23,7.23-3.24,7.23-7.23-3.24-7.23-7.23-7.23Z"/>
    </g>
    <path class="cls-1" d="M943.65,25.13v-1.96c0-4.19-14.88-11-27.25-11.12-9.33-.09-17.84-.12-23.35-.08-3.21.02-5.04,1.1-5.45,3.21h-81.83c-.42-2.1-2.25-3.18-5.45-3.21-5.51-.04-14.02,0-23.35.08-12.37.12-27.25,6.94-27.25,11.12v2c-12.6,9.32-20.78,24.28-20.78,41.11,0,28.19,22.93,51.12,51.12,51.12,7.09,0,13.95-1.43,20.41-4.24l1.04-.46c3.38,2.1,7.37,3.31,11.63,3.31,7.29,0,13.77-3.54,17.8-9h31.89c4.04,5.45,10.51,9,17.8,9,4.19,0,8.11-1.17,11.46-3.2l1.15.47c6.37,2.74,13.15,4.13,20.14,4.13,28.19,0,51.12-22.93,51.12-51.12,0-16.87-8.21-31.84-20.85-41.16ZM893.07,13.97c5.5-.04,13.99,0,23.31.08,13.03.13,25.27,7.14,25.27,9.12v.55c-8.1-5.4-17.83-8.56-28.27-8.56h-23.68c.33-.68,1.21-1.19,3.37-1.21ZM751.72,23.18c0-1.99,12.24-9,25.27-9.12,9.32-.09,17.82-.12,23.31-.08,2.16.02,3.04.52,3.37,1.21h-23.62c-10.48,0-20.22,3.17-28.34,8.6v-.6ZM813.14,114.02c-11.1,0-20.14-9.03-20.14-20.14s9.03-20.14,20.14-20.14,20.14,9.03,20.14,20.14-9.03,20.14-20.14,20.14ZM880.63,114.02c-11.1,0-20.14-9.03-20.14-20.14s9.03-20.14,20.14-20.14,20.14,9.03,20.14,20.14-9.03,20.14-20.14,20.14ZM913.38,115.41c-6.7,0-13.19-1.33-19.31-3.95,5.29-4.05,8.7-10.42,8.7-17.58,0-12.21-9.93-22.14-22.14-22.14s-22.14,9.93-22.14,22.14c0,4.06,1.1,7.86,3.02,11.14h-29.26c1.91-3.27,3.02-7.08,3.02-11.14,0-12.21-9.93-22.14-22.14-22.14s-22.14,9.93-22.14,22.14c0,7.1,3.37,13.43,8.58,17.48-6.17,2.68-12.74,4.04-19.52,4.04-27.09,0-49.12-22.04-49.12-49.12s22.04-49.12,49.12-49.12h133.32c27.09,0,49.12,22.04,49.12,49.12s-22.04,49.12-49.12,49.12Z"/>
    <path class="cls-1" d="M794.2,48.08h-10.26v-10.26c0-1.74-1.41-3.15-3.15-3.15h-7.59c-1.74,0-3.15,1.41-3.15,3.15v10.26h-10.26c-1.74,0-3.15,1.41-3.15,3.15v7.59c0,1.74,1.41,3.15,3.15,3.15h10.26v10.26c0,1.74,1.41,3.15,3.15,3.15h7.59c1.74,0,3.15-1.41,3.15-3.15v-10.26h10.26c1.74,0,3.15-1.41,3.15-3.15v-7.59c0-1.74-1.41-3.15-3.15-3.15ZM795.35,58.83c0,.63-.52,1.15-1.15,1.15h-12.26v12.26c0,.63-.52,1.15-1.15,1.15h-7.59c-.63,0-1.15-.52-1.15-1.15v-12.26h-12.26c-.64,0-1.15-.52-1.15-1.15v-7.59c0-.63.52-1.15,1.15-1.15h12.26v-12.26c0-.63.52-1.15,1.15-1.15h7.59c.64,0,1.15.52,1.15,1.15v12.26h12.26c.63,0,1.15.52,1.15,1.15v7.59Z"/>
    <path class="cls-1" d="M813.14,77.87c-8.83,0-16.02,7.19-16.02,16.02s7.19,16.02,16.02,16.02,16.02-7.19,16.02-16.02-7.19-16.02-16.02-16.02ZM813.14,107.9c-7.73,0-14.02-6.29-14.02-14.02s6.29-14.02,14.02-14.02,14.02,6.29,14.02,14.02-6.29,14.02-14.02,14.02Z"/>
    <path class="cls-1" d="M880.63,77.87c-8.83,0-16.02,7.19-16.02,16.02s7.19,16.02,16.02,16.02,16.02-7.19,16.02-16.02-7.19-16.02-16.02-16.02ZM880.63,107.9c-7.73,0-14.02-6.29-14.02-14.02s6.29-14.02,14.02-14.02,14.02,6.29,14.02,14.02-6.29,14.02-14.02,14.02Z"/>
    <path class="cls-1" d="M895.65,45.8c-5.09,0-9.23,4.14-9.23,9.23s4.14,9.23,9.23,9.23,9.23-4.14,9.23-9.23-4.14-9.23-9.23-9.23ZM895.65,62.26c-3.98,0-7.23-3.24-7.23-7.23s3.24-7.23,7.23-7.23,7.23,3.24,7.23,7.23-3.24,7.23-7.23,7.23Z"/>
    <path class="cls-1" d="M935.9,45.8c-5.09,0-9.23,4.14-9.23,9.23s4.14,9.23,9.23,9.23,9.23-4.14,9.23-9.23-4.14-9.23-9.23-9.23ZM935.9,62.26c-3.98,0-7.23-3.24-7.23-7.23s3.24-7.23,7.23-7.23,7.23,3.24,7.23,7.23-3.24,7.23-7.23,7.23Z"/>
    <path class="cls-1" d="M915.92,28.71c-5.09,0-9.23,4.14-9.23,9.23s4.14,9.23,9.23,9.23,9.23-4.14,9.23-9.23-4.14-9.23-9.23-9.23ZM915.92,45.17c-3.98,0-7.23-3.24-7.23-7.23s3.24-7.23,7.23-7.23,7.23,3.24,7.23,7.23-3.24,7.23-7.23,7.23Z"/>
    <path class="cls-1" d="M915.92,62.89c-5.09,0-9.23,4.14-9.23,9.23s4.14,9.23,9.23,9.23,9.23-4.14,9.23-9.23-4.14-9.23-9.23-9.23ZM915.92,79.34c-3.98,0-7.23-3.24-7.23-7.23s3.24-7.23,7.23-7.23,7.23,3.24,7.23,7.23-3.24,7.23-7.23,7.23Z"/>
    <path class="cls-1" d="M915.45,89.72c-3.64,0-6.6,2.96-6.6,6.6s2.96,6.6,6.6,6.6,6.6-2.96,6.6-6.6-2.96-6.6-6.6-6.6ZM915.45,100.92c-2.54,0-4.6-2.06-4.6-4.6s2.06-4.6,4.6-4.6,4.6,2.06,4.6,4.6-2.06,4.6-4.6,4.6Z"/>
    <path class="cls-1" d="M915.45,92.42c-2.15,0-3.9,1.75-3.9,3.9s1.75,3.91,3.9,3.91,3.9-1.75,3.9-3.91-1.75-3.9-3.9-3.9ZM915.45,98.23c-1.05,0-1.9-.85-1.9-1.91s.85-1.9,1.9-1.9,1.9.85,1.9,1.9-.85,1.91-1.9,1.91Z"/>
    <path class="cls-1" d="M776.98,89.72c-3.64,0-6.6,2.96-6.6,6.6s2.96,6.6,6.6,6.6,6.6-2.96,6.6-6.6-2.96-6.6-6.6-6.6ZM776.98,100.92c-2.54,0-4.6-2.06-4.6-4.6s2.06-4.6,4.6-4.6,4.6,2.06,4.6,4.6-2.06,4.6-4.6,4.6Z"/>
    <path class="cls-1" d="M776.98,92.42c-2.15,0-3.9,1.75-3.9,3.9s1.75,3.91,3.9,3.91,3.9-1.75,3.9-3.91-1.75-3.9-3.9-3.9ZM776.98,98.23c-1.05,0-1.9-.85-1.9-1.91s.85-1.9,1.9-1.9,1.9.85,1.9,1.9-.85,1.91-1.9,1.91Z"/>
    <path class="cls-1" d="M776.98,51.12c-2.15,0-3.9,1.75-3.9,3.91s1.75,3.9,3.9,3.9,3.9-1.75,3.9-3.9-1.75-3.91-3.9-3.91ZM776.98,56.93c-1.05,0-1.9-.85-1.9-1.9s.85-1.91,1.9-1.91,1.9.85,1.9,1.91-.85,1.9-1.9,1.9Z"/>
    <path class="cls-1" d="M865.26,45.17h-37.08c-4.98,0-9.04,4.05-9.04,9.04s4.05,9.04,9.04,9.04h37.08c4.98,0,9.04-4.05,9.04-9.04s-4.05-9.04-9.04-9.04ZM865.26,61.24h-37.08c-3.88,0-7.04-3.16-7.04-7.04s3.16-7.04,7.04-7.04h37.08c3.88,0,7.04,3.16,7.04,7.04s-3.16,7.04-7.04,7.04Z"/>
    <path class="cls-1" d="M841.67,50.35h-13.19c-2.13,0-3.86,1.73-3.86,3.86s1.73,3.86,3.86,3.86h13.19c2.13,0,3.86-1.73,3.86-3.86s-1.73-3.86-3.86-3.86ZM841.67,56.06h-13.19c-1.02,0-1.86-.83-1.86-1.86s.83-1.86,1.86-1.86h13.19c1.02,0,1.86.83,1.86,1.86s-.83,1.86-1.86,1.86Z"/>
    <path class="cls-1" d="M864.96,50.35h-13.19c-2.13,0-3.86,1.73-3.86,3.86s1.73,3.86,3.86,3.86h13.19c2.13,0,3.86-1.73,3.86-3.86s-1.73-3.86-3.86-3.86ZM864.96,56.06h-13.19c-1.02,0-1.86-.83-1.86-1.86s.83-1.86,1.86-1.86h13.19c1.02,0,1.86.83,1.86,1.86s-.83,1.86-1.86,1.86Z"/>
  </g>
</svg>